<svg width="189" height="130" viewBox="0 0 189 130" fill="none" xmlns="http://www.w3.org/2000/svg">
<path fill-rule="evenodd" clip-rule="evenodd" d="M36.0002 18H18.0002V56.0005H18V74.0005H18.0002V88H36.0002V74.0005H54V56.0005H36.0002V18Z" fill="url(#paint0_linear_4_2)"/>
<path fill-rule="evenodd" clip-rule="evenodd" d="M59.0002 112L77.0002 112L77.0003 42L59.0002 42L59.0002 56.0002L48 56.0002L48 74.0002L59.0002 74.0002L59.0002 112Z" fill="url(#paint1_linear_4_2)"/>
<path d="M83.4522 64.724C83.4522 62.26 83.9362 60.0747 84.9042 58.168C85.9016 56.2613 87.2362 54.7947 88.9082 53.768C90.6096 52.7413 92.5016 52.228 94.5842 52.228C96.4029 52.228 97.9869 52.5947 99.3362 53.328C100.715 54.0613 101.815 54.9853 102.636 56.1V52.624H108.84V77H102.636V73.436C101.844 74.58 100.744 75.5333 99.3362 76.296C97.9576 77.0293 96.3589 77.396 94.5402 77.396C92.4869 77.396 90.6096 76.868 88.9082 75.812C87.2362 74.756 85.9016 73.2747 84.9042 71.368C83.9362 69.432 83.4522 67.2173 83.4522 64.724ZM102.636 64.812C102.636 63.316 102.343 62.04 101.756 60.984C101.17 59.8987 100.378 59.0773 99.3802 58.52C98.3829 57.9333 97.3122 57.64 96.1682 57.64C95.0242 57.64 93.9682 57.9187 93.0002 58.476C92.0322 59.0333 91.2402 59.8547 90.6242 60.94C90.0376 61.996 89.7442 63.2573 89.7442 64.724C89.7442 66.1907 90.0376 67.4813 90.6242 68.596C91.2402 69.6813 92.0322 70.5173 93.0002 71.104C93.9976 71.6907 95.0536 71.984 96.1682 71.984C97.3122 71.984 98.3829 71.7053 99.3802 71.148C100.378 70.5613 101.17 69.74 101.756 68.684C102.343 67.5987 102.636 66.308 102.636 64.812ZM121.017 56.188C121.809 55.0147 122.894 54.0613 124.273 53.328C125.681 52.5947 127.279 52.228 129.069 52.228C131.151 52.228 133.029 52.7413 134.701 53.768C136.402 54.7947 137.737 56.2613 138.705 58.168C139.702 60.0453 140.201 62.2307 140.201 64.724C140.201 67.2173 139.702 69.432 138.705 71.368C137.737 73.2747 136.402 74.756 134.701 75.812C133.029 76.868 131.151 77.396 129.069 77.396C127.25 77.396 125.651 77.044 124.273 76.34C122.923 75.6067 121.838 74.668 121.017 73.524V77H114.857V44.44H121.017V56.188ZM133.909 64.724C133.909 63.2573 133.601 61.996 132.985 60.94C132.398 59.8547 131.606 59.0333 130.609 58.476C129.641 57.9187 128.585 57.64 127.441 57.64C126.326 57.64 125.27 57.9333 124.273 58.52C123.305 59.0773 122.513 59.8987 121.897 60.984C121.31 62.0693 121.017 63.3453 121.017 64.812C121.017 66.2787 121.31 67.5547 121.897 68.64C122.513 69.7253 123.305 70.5613 124.273 71.148C125.27 71.7053 126.326 71.984 127.441 71.984C128.585 71.984 129.641 71.6907 130.609 71.104C131.606 70.5173 132.398 69.6813 132.985 68.596C133.601 67.5107 133.909 66.22 133.909 64.724ZM147.801 49.72C146.716 49.72 145.806 49.3827 145.073 48.708C144.369 48.004 144.017 47.1387 144.017 46.112C144.017 45.0853 144.369 44.2347 145.073 43.56C145.806 42.856 146.716 42.504 147.801 42.504C148.886 42.504 149.781 42.856 150.485 43.56C151.218 44.2347 151.585 45.0853 151.585 46.112C151.585 47.1387 151.218 48.004 150.485 48.708C149.781 49.3827 148.886 49.72 147.801 49.72ZM150.837 52.624V77H144.677V52.624H150.837ZM164.095 57.684V69.476C164.095 70.2973 164.286 70.8987 164.667 71.28C165.078 71.632 165.752 71.808 166.691 71.808H169.551V77H165.679C160.487 77 157.891 74.4773 157.891 69.432V57.684H154.987V52.624H157.891V46.596H164.095V52.624H169.551V57.684H164.095ZM181.154 57.684V69.476C181.154 70.2973 181.344 70.8987 181.726 71.28C182.136 71.632 182.811 71.808 183.75 71.808H186.61V77H182.738C177.546 77 174.95 74.4773 174.95 69.432V57.684H172.046V52.624H174.95V46.596H181.154V52.624H186.61V57.684H181.154Z" fill="#333333"/>
<defs>
<linearGradient id="paint0_linear_4_2" x1="36.0502" y1="5.29828" x2="36.0344" y2="74.2224" gradientUnits="userSpaceOnUse">
<stop stop-color="#742BB5" stop-opacity="0.65"/>
<stop offset="1" stop-color="#1B0032"/>
</linearGradient>
<linearGradient id="paint1_linear_4_2" x1="59.0118" y1="125.027" x2="59.0118" y2="56.1027" gradientUnits="userSpaceOnUse">
<stop stop-color="#14518E"/>
<stop offset="1" stop-color="#02D8F0"/>
</linearGradient>
</defs>
</svg>
